<?xml version="1.0" encoding="UTF-8" standalone="no"?>
<svg
   viewBox="0 0 1024 1024"
   width="1024"
   height="1024"
   fill="none"
   version="1.1"
   id="svg40"
   sodipodi:docname="atlas.svg"
   inkscape:version="1.4.2 (ebf0e940, 2025-05-08)"
   xmlns:inkscape="http://www.inkscape.org/namespaces/inkscape"
   xmlns:sodipodi="http://sodipodi.sourceforge.net/DTD/sodipodi-0.dtd"
   xmlns="http://www.w3.org/2000/svg"
   xmlns:svg="http://www.w3.org/2000/svg">
  <sodipodi:namedview
     id="namedview40"
     pagecolor="#ffffff"
     bordercolor="#000000"
     borderopacity="0.25"
     inkscape:showpageshadow="2"
     inkscape:pageopacity="0.0"
     inkscape:pagecheckerboard="0"
     inkscape:deskcolor="#d1d1d1"
     inkscape:zoom="1.296875"
     inkscape:rotation="2"
     inkscape:cx="512.31323"
     inkscape:cy="530.29899"
     inkscape:window-width="1920"
     inkscape:window-height="1080"
     inkscape:window-x="0"
     inkscape:window-y="0"
     inkscape:window-maximized="0"
     inkscape:current-layer="svg40" />
  <defs
     id="defs4">
    <style
       id="style1">
      .ink{stroke:#241d16;stroke-width:14;stroke-linecap:round;stroke-linejoin:round}
      .ink2{stroke:#241d16;stroke-width:8;stroke-linecap:round;stroke-linejoin:round}
      .thin{stroke:#9b856b;stroke-width:4;stroke-linecap:round;stroke-linejoin:round;opacity:.58}
      .dash{stroke:#6f604d;stroke-width:5;stroke-linecap:round;stroke-linejoin:round;stroke-dasharray:14 16;opacity:.85}
      .cream{fill:#F4EBDD}
      .face{fill:#FBF3E8}
      .tan{fill:#D8C5AA}
      .red{fill:#D64C2F}
      .blue{fill:#2E5D70}
      .eye{fill:#1E1B18}
    </style>
    <radialGradient
       id="softFill"
       cx="50%"
       cy="42%"
       r="62%">
      <stop
         offset="0"
         stop-color="#FFF8EE"
         id="stop1" />
      <stop
         offset="1"
         stop-color="#EFE4D5"
         id="stop2" />
    </radialGradient>
    <radialGradient
       id="eyeGrad"
       cx="35%"
       cy="30%"
       r="70%">
      <stop
         offset="0"
         stop-color="#4A4946"
         id="stop3" />
      <stop
         offset="1"
         stop-color="#11100F"
         id="stop4" />
    </radialGradient>
  </defs>
  <!-- side modules -->
  <g
     id="side-modules">
    <path
       class="cream ink"
       d="M171 421c-41 0-66 36-66 91s25 91 66 91h44V421h-44z"
       id="path4" />
    <path
       class="cream ink"
       d="M853 421c41 0 66 36 66 91s-25 91-66 91h-44V421h44z"
       id="path5" />
  </g>
  <!-- main shell -->
  <path
     id="head-shell"
     d="M190 531c0-210 118-356 322-356s322 146 322 356c0 205-118 333-322 333S190 736 190 531z"
     fill="url(#softFill)"
     class="ink" />
  <!-- topographic shell details -->
  <!-- compass rose -->
  <g
     id="compass"
     transform="translate(512 257)">
    <circle
       r="55"
       fill="#F4EBDD"
       class="ink2"
       id="circle21" />
    <path
       d="M0-82V82M-82 0H82"
       stroke="#241d16"
       stroke-width="5"
       stroke-linecap="round"
       id="path21" />
    <path
       d="M0-68 18-5 0 0-18-5z"
       class="red ink2"
       id="path22" />
    <path
       d="M0 68 18 5 0 0-18 5z"
       fill="#BBA88D"
       class="ink2"
       id="path23" />
    <path
       d="M-68 0-5-18 0 0-5 18z"
       fill="#EFE4D5"
       class="ink2"
       id="path24" />
    <path
       d="M68 0 5-18 0 0 5 18z"
       fill="#EFE4D5"
       class="ink2"
       id="path25" />
    <circle
       r="5"
       fill="#241d16"
       id="circle25" />
  </g>
  <!-- visor frame -->
  <rect
     x="251"
     y="372"
     width="522"
     height="396"
     rx="112"
     class="tan ink"
     opacity=".85"
     id="rect25" />
  <rect
     x="273"
     y="391"
     width="478"
     height="358"
     rx="91"
     class="face ink2"
     id="rect26" />
  <!-- eyes -->
  <g
     id="eyes">
    <circle
       cx="395"
       cy="565"
       r="51"
       fill="#FFF8EE"
       class="ink2"
       id="circle26" />
    <circle
       cx="395"
       cy="565"
       r="36"
       fill="url(#eyeGrad)"
       id="circle27" />
    <circle
       cx="408"
       cy="548"
       r="13"
       fill="#fff"
       id="circle28" />
    <circle
       cx="376"
       cy="584"
       r="13"
       fill="#000"
       opacity=".22"
       id="circle29" />
    <circle
       cx="629"
       cy="565"
       r="51"
       fill="#FFF8EE"
       class="ink2"
       id="circle30" />
    <circle
       cx="629"
       cy="565"
       r="36"
       fill="url(#eyeGrad)"
       id="circle31" />
    <circle
       cx="642"
       cy="548"
       r="13"
       fill="#fff"
       id="circle32" />
    <circle
       cx="610"
       cy="584"
       r="13"
       fill="#000"
       opacity=".22"
       id="circle33" />
  </g>
  <!-- eyebrows and smile -->
  <path
     class="ink2"
     d="M358 483c22-18 48-18 70 0"
     id="path33" />
  <path
     class="ink2"
     d="M596 483c22-18 48-18 70 0"
     id="path34" />
  <path
     class="ink2"
     d="M470 652c25 30 59 30 84 0"
     id="path35" />
  <!-- lower shell panel -->
  <path
     class="ink2"
     d="M390 819l28-37h188l28 37"
     id="path36" />
  <circle
     cx="512"
     cy="815"
     r="12"
     class="red ink2"
     id="circle36" />
  <!-- subtle side details -->
</svg>
